<svg xmlns="http://www.w3.org/2000/svg" viewBox="0 0 1280 640" width="1280" height="640">
<defs>
  <radialGradient id="amb" cx="0.24" cy="0.48" r="0.72"><stop offset="0" stop-color="#0d2a44"/><stop offset="0.42" stop-color="#08122a"/><stop offset="1" stop-color="#030409"/></radialGradient>
  <linearGradient id="neon" x1="0" y1="0" x2="1" y2="1"><stop offset="0" stop-color="#22D3EE"/><stop offset="0.55" stop-color="#38BDF8"/><stop offset="1" stop-color="#7C5CFF"/></linearGradient>
  <linearGradient id="txtg" x1="0" y1="0" x2="0" y2="1"><stop offset="0" stop-color="#FFFFFF"/><stop offset="0.6" stop-color="#EAF6FF"/><stop offset="1" stop-color="#7DD3FC"/></linearGradient>
  <filter id="bL" x="-100%" y="-100%" width="300%" height="300%"><feGaussianBlur stdDeviation="30"/></filter>
  <filter id="bM" x="-80%" y="-80%" width="260%" height="260%"><feGaussianBlur stdDeviation="12"/></filter>
  <filter id="bS" x="-60%" y="-60%" width="220%" height="220%"><feGaussianBlur stdDeviation="4.5"/></filter>
  <pattern id="mesh" width="48" height="48" patternUnits="userSpaceOnUse"><path d="M48 0H0V48" fill="none" stroke="#38BDF8" stroke-opacity="0.055" stroke-width="1"/></pattern>
</defs>
<rect width="1280" height="640" fill="url(#amb)"/>
<rect width="1280" height="640" fill="url(#mesh)"/>
<ellipse cx="300" cy="330" rx="300" ry="290" fill="#22D3EE" opacity="0.13" filter="url(#bL)"/>
<ellipse cx="300" cy="330" rx="120" ry="120" fill="#7C5CFF" opacity="0.12" filter="url(#bL)"/>

<g transform="translate(1132,30) scale(0.6)"><rect x="-6" y="-6" width="132" height="132" rx="26" fill="#0a0a20" opacity="0.55"/>
  <defs>
    <linearGradient id="wgl" x1="0" y1="0" x2="0" y2="1">
      <stop offset="0%" stop-color="#a78bfa"/>
      <stop offset="100%" stop-color="#7c3aed"/>
    </linearGradient>
    <linearGradient id="wgr" x1="0" y1="0" x2="0" y2="1">
      <stop offset="0%" stop-color="#67e8f9"/>
      <stop offset="100%" stop-color="#06b6d4"/>
    </linearGradient>
    <filter id="wglow">
      <feGaussianBlur stdDeviation="1.5" result="b"/>
      <feMerge><feMergeNode in="b"/><feMergeNode in="SourceGraphic"/></feMerge>
    </filter>
  </defs>

  <rect width="120" height="120" rx="22" fill="#ffffff" stroke="#e5e7eb" stroke-width="2"/>

  <!-- LOBE GAUCHE -->
  <path d="
    M60,28
    C56,24 48,22 41,25
    C34,28 30,35 30,42
    C27,44 25,49 27,54
    C24,57 23,63 26,68
    C29,73 35,75 40,73
    C42,78 46,82 52,82
    C57,82 60,79 60,79
  " fill="none" stroke="url(#wgl)" stroke-width="3" stroke-linecap="round" stroke-linejoin="round" filter="url(#wglow)"/>

  <!-- Sillons gauche -->
  <path d="M44,28 C41,36 40,44 42,52" fill="none" stroke="#a78bfa" stroke-width="1.8" stroke-dasharray="3,3" stroke-linecap="round" opacity="0.8"/>
  <path d="M35,40 C32,47 32,56 36,63" fill="none" stroke="#7c3aed" stroke-width="1.4" stroke-dasharray="2,4" stroke-linecap="round" opacity="0.6"/>

  <!-- LOBE DROIT -->
  <path d="
    M60,28
    C64,24 72,22 79,25
    C86,28 90,35 90,42
    C93,44 95,49 93,54
    C96,57 97,63 94,68
    C91,73 85,75 80,73
    C78,78 74,82 68,82
    C63,82 60,79 60,79
  " fill="none" stroke="url(#wgr)" stroke-width="3" stroke-linecap="round" stroke-linejoin="round" filter="url(#wglow)"/>

  <!-- Sillons droite -->
  <path d="M76,28 C79,36 80,44 78,52" fill="none" stroke="#67e8f9" stroke-width="1.8" stroke-dasharray="3,3" stroke-linecap="round" opacity="0.8"/>
  <path d="M85,40 C88,47 88,56 84,63" fill="none" stroke="#06b6d4" stroke-width="1.4" stroke-dasharray="2,4" stroke-linecap="round" opacity="0.6"/>

  <!-- SILLON MÉDIAN -->
  <line x1="60" y1="27" x2="60" y2="80" stroke="#7c3aed" stroke-width="1.5" stroke-dasharray="5,4" opacity="0.55"/>

  <!-- NOEUDS SYNAPTIQUES gauche -->
  <circle cx="40" cy="30" r="3.2" fill="#a78bfa" filter="url(#wglow)"/>
  <circle cx="28" cy="52" r="2.8" fill="#7c3aed" filter="url(#wglow)"/>
  <circle cx="38" cy="72" r="2.8" fill="#10b981" filter="url(#wglow)"/>

  <!-- NOEUDS SYNAPTIQUES droite -->
  <circle cx="80" cy="30" r="3.2" fill="#67e8f9" filter="url(#wglow)"/>
  <circle cx="92" cy="52" r="2.8" fill="#06b6d4" filter="url(#wglow)"/>
  <circle cx="82" cy="72" r="2.8" fill="#10b981" filter="url(#wglow)"/>

  <!-- AXONES vers centre -->
  <line x1="42" y1="32" x2="57" y2="50" stroke="#a78bfa" stroke-width="1.2" opacity="0.6"/>
  <line x1="30" y1="52" x2="54" y2="53" stroke="#7c3aed" stroke-width="1.2" opacity="0.6"/>
  <line x1="40" y1="70" x2="56" y2="57" stroke="#10b981" stroke-width="1.2" opacity="0.6"/>
  <line x1="78" y1="32" x2="63" y2="50" stroke="#67e8f9" stroke-width="1.2" opacity="0.6"/>
  <line x1="90" y1="52" x2="66" y2="53" stroke="#06b6d4" stroke-width="1.2" opacity="0.6"/>
  <line x1="80" y1="70" x2="64" y2="57" stroke="#10b981" stroke-width="1.2" opacity="0.6"/>

  <!-- NOEUD CENTRAL pulsant -->
  <circle cx="60" cy="53" r="6.5" fill="url(#wgl)" filter="url(#wglow)"/>
  <circle cx="60" cy="53" r="11" fill="none" stroke="url(#wgl)" stroke-width="1.5" opacity="0.4"/>
  <circle cx="60" cy="53" r="16" fill="none" stroke="url(#wgr)" stroke-width="0.8" opacity="0.45"/>

  <!-- TEXTE WEVIA -->
  <text x="60" y="97" font-family="Arial Black,Arial" font-weight="900" font-size="12"
        fill="#7c3aed" text-anchor="middle" letter-spacing="3">WEVIA</text>
  <text x="60" y="109" font-family="Arial,sans-serif" font-size="6.5"
        fill="#06b6d4" text-anchor="middle" letter-spacing="2" opacity="0.8">INTELLIGENCE</text>
</g>
<text x="1124" y="115" text-anchor="end" font-family="DejaVu Sans" font-weight="bold" font-size="18" fill="#7DD3FC" letter-spacing="3">WEVIA</text>

<!-- orbit + convergence (left) -->
<g transform="translate(300,330)">
  <circle r="185" fill="none" stroke="#38BDF8" stroke-opacity="0.13" stroke-width="1"/>
  <circle r="142" fill="none" stroke="#7C5CFF" stroke-opacity="0.11" stroke-width="1"/>
  <g fill="none" stroke-linecap="round">
    <path d="M0,-162 L0,-58" stroke="#22D3EE" stroke-width="8" opacity="0.32" filter="url(#bM)"/><path d="M0,-162 L0,-58" stroke="#A5F3FC" stroke-width="2" opacity="0.8"/>
    <path d="M140,-81 L50,-29" stroke="#22D3EE" stroke-width="8" opacity="0.32" filter="url(#bM)"/><path d="M140,-81 L50,-29" stroke="#A5F3FC" stroke-width="2" opacity="0.8"/>
    <path d="M140,81 L50,29" stroke="#34D399" stroke-width="8" opacity="0.3" filter="url(#bM)"/><path d="M140,81 L50,29" stroke="#A7F3D0" stroke-width="2" opacity="0.75"/>
    <path d="M-140,81 L-50,29" stroke="#7C5CFF" stroke-width="8" opacity="0.3" filter="url(#bM)"/><path d="M-140,81 L-50,29" stroke="#C4B5FD" stroke-width="2" opacity="0.75"/>
  </g>
  <g>
    <g transform="translate(0,-162)"><circle r="20" fill="#22D3EE" opacity="0.42" filter="url(#bM)"/><circle r="14" fill="#071a2b" stroke="#67E8F9" stroke-width="2.2"/><circle r="4" fill="#ECFEFF"/></g>
    <g transform="translate(140,-81)"><circle r="18" fill="#22D3EE" opacity="0.38" filter="url(#bM)"/><circle r="13" fill="#071a2b" stroke="#67E8F9" stroke-width="2"/><circle r="3.6" fill="#ECFEFF"/></g>
    <g transform="translate(140,81)"><circle r="18" fill="#34D399" opacity="0.38" filter="url(#bM)"/><circle r="13" fill="#071a2b" stroke="#6EE7B7" stroke-width="2"/><circle r="3.6" fill="#ECFDF5"/></g>
    <g transform="translate(-140,81)"><circle r="18" fill="#7C5CFF" opacity="0.38" filter="url(#bM)"/><circle r="13" fill="#0d0a24" stroke="#C4B5FD" stroke-width="2"/><circle r="3.6" fill="#F5F3FF"/></g>
    <g transform="translate(-140,-81)"><circle r="14" fill="#F59E0B" opacity="0.22" filter="url(#bM)"/><circle r="12" fill="#1a1206" stroke="#FCD34D" stroke-width="1.6" stroke-dasharray="3 4" opacity="0.75"/><circle r="3" fill="#FDE68A" opacity="0.8"/></g>
  </g>
  <!-- MASCOT as the consensus core -->
  <g transform="translate(-105,-142) scale(0.7)">
<defs>
  <linearGradient id="quorum_body" x1="0" y1="0" x2="0" y2="1"><stop offset="0" stop-color="#38BDF8"/><stop offset="1" stop-color="#22A5E0"/></linearGradient>
  <linearGradient id="quorum_belly" x1="0" y1="0" x2="0" y2="1"><stop offset="0" stop-color="#08243c"/><stop offset="1" stop-color="#051726"/></linearGradient>
  <radialGradient id="quorum_cheek" cx="0.5" cy="0.5" r="0.5"><stop offset="0" stop-color="#7DD3FC" stop-opacity="0.9"/><stop offset="1" stop-color="#7DD3FC" stop-opacity="0"/></radialGradient>
  <filter id="quorum_soft" x="-40%" y="-40%" width="180%" height="180%"><feGaussianBlur stdDeviation="4"/></filter>
  <filter id="quorum_dropg" x="-50%" y="-50%" width="200%" height="200%"><feGaussianBlur stdDeviation="8" result="b"/><feMerge><feMergeNode in="b"/><feMergeNode in="SourceGraphic"/></feMerge></filter>
</defs>

<ellipse cx="150" cy="316" rx="86" ry="16" fill="#000" opacity="0.35"/>

<!-- 5 little voter orbs floating around, converging (Quorum identity) -->
<g>
  <g transform="translate(48,90)"><circle r="15" fill="#7C5CFF" filter="url(#quorum_dropg)"/><circle r="15" fill="#0d0a24"/><circle cx="2" cy="-1" r="5" fill="#C4B5FD"/><path d="M-6,4 L-1,8 L7,-3" fill="none" stroke="#34D399" stroke-width="2.5" stroke-linecap="round"/></g>
  <g transform="translate(252,90)"><circle r="15" fill="#22D3EE" filter="url(#quorum_dropg)"/><circle r="15" fill="#071a2b"/><circle cx="2" cy="-1" r="5" fill="#A5F3FC"/><path d="M-6,4 L-1,8 L7,-3" fill="none" stroke="#34D399" stroke-width="2.5" stroke-linecap="round"/></g>
  <g transform="translate(36,190)"><circle r="13" fill="#34D399" filter="url(#quorum_dropg)"/><circle r="13" fill="#052319"/><circle cx="2" cy="-1" r="4" fill="#A7F3D0"/><path d="M-5,3 L-1,7 L6,-3" fill="none" stroke="#ECFDF5" stroke-width="2.2" stroke-linecap="round"/></g>
  <g transform="translate(264,190)"><circle r="13" fill="#7C5CFF" filter="url(#quorum_dropg)"/><circle r="13" fill="#0d0a24"/><circle cx="2" cy="-1" r="4" fill="#C4B5FD"/><path d="M-5,3 L-1,7 L6,-3" fill="none" stroke="#34D399" stroke-width="2.2" stroke-linecap="round"/></g>
  <!-- dissenter: amber, dashed, small question -->
  <g transform="translate(255,265)"><circle r="11" fill="#F59E0B" opacity="0.35" filter="url(#quorum_dropg)"/><circle r="11" fill="#1a1206" stroke="#FCD34D" stroke-width="1.5" stroke-dasharray="3 3"/><text x="0" y="4" text-anchor="middle" font-family="DejaVu Sans" font-weight="bold" font-size="13" fill="#FDE68A">?</text></g>
</g>
<!-- convergence beams from orbs to core -->
<g stroke-linecap="round" opacity="0.5">
  <line x1="60" y1="98" x2="110" y2="150" stroke="#7C5CFF" stroke-width="2" stroke-dasharray="3 5"/>
  <line x1="240" y1="98" x2="190" y2="150" stroke="#22D3EE" stroke-width="2" stroke-dasharray="3 5"/>
  <line x1="48" y1="192" x2="105" y2="185" stroke="#34D399" stroke-width="2" stroke-dasharray="3 5"/>
  <line x1="252" y1="192" x2="195" y2="185" stroke="#7C5CFF" stroke-width="2" stroke-dasharray="3 5"/>
</g>

<!-- BODY: rounded orb, the "core" that tallies -->
<circle cx="150" cy="178" r="80" fill="url(#quorum_body)"/>
<circle cx="150" cy="178" r="80" fill="none" stroke="#7DD3FC" stroke-width="2" opacity="0.5"/>

<!-- belly tally screen with brain lobes -->
<rect x="106" y="186" width="88" height="60" rx="22" fill="url(#quorum_belly)" stroke="#0e3b5c" stroke-width="2"/>
<path d="M150,200 C147,197 141,196 137,199 C133,202 132,206 133,210 C130,212 130,216 132,219 C135,222 140,222 142,219 C144,222 147,224 150,224" fill="none" stroke="#A78BFA" stroke-width="2.6" stroke-linecap="round" filter="url(#quorum_soft)"/>
<path d="M150,200 C153,197 159,196 163,199 C167,202 168,206 167,210 C170,212 170,216 168,219 C165,222 160,222 158,219 C156,222 153,224 150,224" fill="none" stroke="#67E8F9" stroke-width="2.6" stroke-linecap="round" filter="url(#quorum_soft)"/>
<text x="150" y="242" text-anchor="middle" font-family="DejaVu Sans" font-weight="bold" font-size="11" fill="#7DD3FC">0.87</text>

<!-- FACE -->
<g>
  <ellipse cx="124" cy="150" rx="20" ry="22" fill="#04121e"/>
  <ellipse cx="176" cy="150" rx="20" ry="22" fill="#04121e"/>
  <circle cx="130" cy="144" r="7" fill="#A5F3FC"/><circle cx="132" cy="141" r="2.6" fill="#fff"/>
  <circle cx="182" cy="144" r="7" fill="#A5F3FC"/><circle cx="184" cy="141" r="2.6" fill="#fff"/>
</g>
<circle cx="102" cy="170" r="13" fill="url(#quorum_cheek)"/>
<circle cx="198" cy="170" r="13" fill="url(#quorum_cheek)"/>
<path d="M140,170 Q150,180 160,170" fill="none" stroke="#04121e" stroke-width="3.5" stroke-linecap="round"/>

<!-- little antenna showing "listening to all" -->
<line x1="150" y1="98" x2="150" y2="76" stroke="#22D3EE" stroke-width="4" stroke-linecap="round"/>
<circle cx="150" cy="70" r="8" fill="#34D399" filter="url(#quorum_dropg)"/>
<circle cx="150" cy="70" r="3.5" fill="#ECFDF5"/>
</g>
</g>

<g font-family="DejaVu Sans" font-weight="bold">
  <text x="600" y="256" font-size="96" fill="#22D3EE" opacity="0.55" filter="url(#bL)">Quorum</text>
  <text x="600" y="256" font-size="96" fill="#38BDF8" opacity="0.45" filter="url(#bS)">Quorum</text>
  <text x="600" y="256" font-size="96" fill="url(#txtg)">Quorum</text>
</g>
<rect x="602" y="286" width="140" height="5" rx="2.5" fill="url(#neon)" opacity="0.8" filter="url(#bS)"/>
<rect x="602" y="286" width="140" height="5" rx="2.5" fill="url(#neon)"/>
<g font-family="DejaVu Sans">
  <text x="602" y="344" font-size="27" fill="#CFE9FF">One prompt. Every model.</text>
  <text x="602" y="380" font-size="27" fill="#CFE9FF">Real agreement, measured.</text>
  <text x="602" y="436" font-size="18" fill="#7E9CC0">Ask them all &#183; score the consensus &#183; zero deps</text>
</g>
<g transform="translate(602,474)">
  <circle cx="10" cy="-5" r="10" fill="#38BDF8"/><path d="M4,-6 L9,-1 L17,-12" fill="none" stroke="#34D399" stroke-width="2.4" stroke-linecap="round"/>
  <text x="30" y="0" font-family="DejaVu Sans" font-weight="bold" font-size="17" fill="#7DD3FC">Pip</text>
  <text x="66" y="0" font-family="DejaVu Sans" font-size="14" fill="#6785A8">— tallies what the models think</text>
</g>
<g font-family="DejaVu Sans"><rect x="602" y="506" width="3" height="19" rx="1.5" fill="#22D3EE"/><text x="618" y="521" font-size="15" fill="#7189AE">by Yacine Mahboub &#183; Founder of WEVIA</text></g>
<rect x="1" y="1" width="1278" height="638" fill="none" stroke="#22D3EE" stroke-opacity="0.16" stroke-width="2"/>
</svg>