<svg xmlns="http://www.w3.org/2000/svg" viewBox="0 0 1280 640" width="1280" height="640">
<defs>
  <radialGradient id="amb" cx="0.26" cy="0.46" r="0.72"><stop offset="0" stop-color="#0d2a44"/><stop offset="0.42" stop-color="#08122a"/><stop offset="1" stop-color="#030409"/></radialGradient>
  <linearGradient id="neon" x1="0" y1="0" x2="1" y2="1"><stop offset="0" stop-color="#22D3EE"/><stop offset="0.55" stop-color="#38BDF8"/><stop offset="1" stop-color="#7C5CFF"/></linearGradient>
  <linearGradient id="txtg" x1="0" y1="0" x2="0" y2="1"><stop offset="0" stop-color="#FFFFFF"/><stop offset="0.6" stop-color="#EAF6FF"/><stop offset="1" stop-color="#7DD3FC"/></linearGradient>
  <filter id="bL" x="-100%" y="-100%" width="300%" height="300%"><feGaussianBlur stdDeviation="30"/></filter>
  <filter id="bS" x="-60%" y="-60%" width="220%" height="220%"><feGaussianBlur stdDeviation="4.5"/></filter>
  <pattern id="mesh" width="48" height="48" patternUnits="userSpaceOnUse"><path d="M48 0H0V48" fill="none" stroke="#38BDF8" stroke-opacity="0.06" stroke-width="1"/></pattern>
  <radialGradient id="stage" cx="0.5" cy="0.5" r="0.5"><stop offset="0" stop-color="#22D3EE" stop-opacity="0.20"/><stop offset="1" stop-color="#22D3EE" stop-opacity="0"/></radialGradient>
</defs>
<rect width="1280" height="640" fill="url(#amb)"/>
<rect width="1280" height="640" fill="url(#mesh)"/>
<ellipse cx="300" cy="330" rx="300" ry="290" fill="#22D3EE" opacity="0.14" filter="url(#bL)"/>
<ellipse cx="300" cy="350" rx="230" ry="220" fill="url(#stage)"/>

<g transform="translate(1132,30) scale(0.6)"><rect x="-6" y="-6" width="132" height="132" rx="26" fill="#0a0a20" opacity="0.55"/>
  <defs>
    <linearGradient id="wgl" x1="0" y1="0" x2="0" y2="1">
      <stop offset="0%" stop-color="#a78bfa"/>
      <stop offset="100%" stop-color="#7c3aed"/>
    </linearGradient>
    <linearGradient id="wgr" x1="0" y1="0" x2="0" y2="1">
      <stop offset="0%" stop-color="#67e8f9"/>
      <stop offset="100%" stop-color="#06b6d4"/>
    </linearGradient>
    <filter id="wglow">
      <feGaussianBlur stdDeviation="1.5" result="b"/>
      <feMerge><feMergeNode in="b"/><feMergeNode in="SourceGraphic"/></feMerge>
    </filter>
  </defs>

  <rect width="120" height="120" rx="22" fill="#ffffff" stroke="#e5e7eb" stroke-width="2"/>

  <!-- LOBE GAUCHE -->
  <path d="
    M60,28
    C56,24 48,22 41,25
    C34,28 30,35 30,42
    C27,44 25,49 27,54
    C24,57 23,63 26,68
    C29,73 35,75 40,73
    C42,78 46,82 52,82
    C57,82 60,79 60,79
  " fill="none" stroke="url(#wgl)" stroke-width="3" stroke-linecap="round" stroke-linejoin="round" filter="url(#wglow)"/>

  <!-- Sillons gauche -->
  <path d="M44,28 C41,36 40,44 42,52" fill="none" stroke="#a78bfa" stroke-width="1.8" stroke-dasharray="3,3" stroke-linecap="round" opacity="0.8"/>
  <path d="M35,40 C32,47 32,56 36,63" fill="none" stroke="#7c3aed" stroke-width="1.4" stroke-dasharray="2,4" stroke-linecap="round" opacity="0.6"/>

  <!-- LOBE DROIT -->
  <path d="
    M60,28
    C64,24 72,22 79,25
    C86,28 90,35 90,42
    C93,44 95,49 93,54
    C96,57 97,63 94,68
    C91,73 85,75 80,73
    C78,78 74,82 68,82
    C63,82 60,79 60,79
  " fill="none" stroke="url(#wgr)" stroke-width="3" stroke-linecap="round" stroke-linejoin="round" filter="url(#wglow)"/>

  <!-- Sillons droite -->
  <path d="M76,28 C79,36 80,44 78,52" fill="none" stroke="#67e8f9" stroke-width="1.8" stroke-dasharray="3,3" stroke-linecap="round" opacity="0.8"/>
  <path d="M85,40 C88,47 88,56 84,63" fill="none" stroke="#06b6d4" stroke-width="1.4" stroke-dasharray="2,4" stroke-linecap="round" opacity="0.6"/>

  <!-- SILLON MÉDIAN -->
  <line x1="60" y1="27" x2="60" y2="80" stroke="#7c3aed" stroke-width="1.5" stroke-dasharray="5,4" opacity="0.55"/>

  <!-- NOEUDS SYNAPTIQUES gauche -->
  <circle cx="40" cy="30" r="3.2" fill="#a78bfa" filter="url(#wglow)"/>
  <circle cx="28" cy="52" r="2.8" fill="#7c3aed" filter="url(#wglow)"/>
  <circle cx="38" cy="72" r="2.8" fill="#10b981" filter="url(#wglow)"/>

  <!-- NOEUDS SYNAPTIQUES droite -->
  <circle cx="80" cy="30" r="3.2" fill="#67e8f9" filter="url(#wglow)"/>
  <circle cx="92" cy="52" r="2.8" fill="#06b6d4" filter="url(#wglow)"/>
  <circle cx="82" cy="72" r="2.8" fill="#10b981" filter="url(#wglow)"/>

  <!-- AXONES vers centre -->
  <line x1="42" y1="32" x2="57" y2="50" stroke="#a78bfa" stroke-width="1.2" opacity="0.6"/>
  <line x1="30" y1="52" x2="54" y2="53" stroke="#7c3aed" stroke-width="1.2" opacity="0.6"/>
  <line x1="40" y1="70" x2="56" y2="57" stroke="#10b981" stroke-width="1.2" opacity="0.6"/>
  <line x1="78" y1="32" x2="63" y2="50" stroke="#67e8f9" stroke-width="1.2" opacity="0.6"/>
  <line x1="90" y1="52" x2="66" y2="53" stroke="#06b6d4" stroke-width="1.2" opacity="0.6"/>
  <line x1="80" y1="70" x2="64" y2="57" stroke="#10b981" stroke-width="1.2" opacity="0.6"/>

  <!-- NOEUD CENTRAL pulsant -->
  <circle cx="60" cy="53" r="6.5" fill="url(#wgl)" filter="url(#wglow)"/>
  <circle cx="60" cy="53" r="11" fill="none" stroke="url(#wgl)" stroke-width="1.5" opacity="0.4"/>
  <circle cx="60" cy="53" r="16" fill="none" stroke="url(#wgr)" stroke-width="0.8" opacity="0.45"/>

  <!-- TEXTE WEVIA -->
  <text x="60" y="97" font-family="Arial Black,Arial" font-weight="900" font-size="12"
        fill="#7c3aed" text-anchor="middle" letter-spacing="3">WEVIA</text>
  <text x="60" y="109" font-family="Arial,sans-serif" font-size="6.5"
        fill="#06b6d4" text-anchor="middle" letter-spacing="2" opacity="0.8">INTELLIGENCE</text>
</g>
<text x="1124" y="115" text-anchor="end" font-family="DejaVu Sans" font-weight="bold" font-size="18" fill="#7DD3FC" letter-spacing="3">WEVIA</text>

<!-- MASCOT centre-stage left, large -->
<g transform="translate(126,124) scale(1.02)">
<defs>
  <radialGradient id="p_body" cx="0.34" cy="0.26" r="0.82">
    <stop offset="0" stop-color="#9AE6FF"/><stop offset="0.42" stop-color="#38BDF8"/>
    <stop offset="0.78" stop-color="#0C87C9"/><stop offset="1" stop-color="#075985"/>
  </radialGradient>
  <linearGradient id="p_rim" x1="0" y1="0" x2="1" y2="1">
    <stop offset="0" stop-color="#DFF6FF" stop-opacity="0"/><stop offset="0.72" stop-color="#DFF6FF" stop-opacity="0"/>
    <stop offset="1" stop-color="#BEEBFF" stop-opacity="0.85"/>
  </linearGradient>
  <radialGradient id="p_spec" cx="0.5" cy="0.5" r="0.5">
    <stop offset="0" stop-color="#FFFFFF" stop-opacity="0.85"/><stop offset="0.55" stop-color="#FFFFFF" stop-opacity="0.18"/><stop offset="1" stop-color="#FFFFFF" stop-opacity="0"/>
  </radialGradient>
  <radialGradient id="p_shadow" cx="0.5" cy="0.5" r="0.5">
    <stop offset="0" stop-color="#062338" stop-opacity="0.55"/><stop offset="0.6" stop-color="#062338" stop-opacity="0.18"/><stop offset="1" stop-color="#062338" stop-opacity="0"/>
  </radialGradient>
  <linearGradient id="p_visor" x1="0" y1="0" x2="0" y2="1">
    <stop offset="0" stop-color="#0B2A44"/><stop offset="0.5" stop-color="#04121F"/><stop offset="1" stop-color="#0A2338"/>
  </linearGradient>
  <linearGradient id="p_gloss" x1="0" y1="0" x2="0" y2="1">
    <stop offset="0" stop-color="#FFFFFF" stop-opacity="0.30"/><stop offset="1" stop-color="#FFFFFF" stop-opacity="0"/>
  </linearGradient>
  <radialGradient id="p_eye" cx="0.35" cy="0.3" r="0.75">
    <stop offset="0" stop-color="#CFFAFE"/><stop offset="0.5" stop-color="#67E8F9"/><stop offset="1" stop-color="#0E7490"/>
  </radialGradient>
  <linearGradient id="p_board" x1="0" y1="0" x2="0.6" y2="1">
    <stop offset="0" stop-color="#FFFFFF"/><stop offset="0.5" stop-color="#EEF6FF"/><stop offset="1" stop-color="#CBDCEC"/>
  </linearGradient>
  <linearGradient id="p_arm" x1="0" y1="0" x2="1" y2="0">
    <stop offset="0" stop-color="#3FB4E8"/><stop offset="1" stop-color="#0C7BB5"/>
  </linearGradient>
  <linearGradient id="p_bub" x1="0" y1="0" x2="0" y2="1">
    <stop offset="0" stop-color="#FFFFFF"/><stop offset="1" stop-color="#DCE9F7"/>
  </linearGradient>
</defs>

<!-- 3 model speech bubbles (the "many models" idea, instantly readable) -->
<g>
  <g transform="translate(44,50)">
    <rect x="-30" y="-20" width="60" height="40" rx="14" fill="url(#p_bub)"/>
    <path d="M6,18 L14,32 L20,17 Z" fill="#DCE9F7"/>
    <path d="M-13,2 L-4,11 L13,-9" fill="none" stroke="#12A374" stroke-width="6" stroke-linecap="round" stroke-linejoin="round"/>
  </g>
  <g transform="translate(170,30)">
    <rect x="-30" y="-20" width="60" height="40" rx="14" fill="url(#p_bub)"/>
    <path d="M-4,18 L2,32 L10,17 Z" fill="#DCE9F7"/>
    <path d="M-13,2 L-4,11 L13,-9" fill="none" stroke="#12A374" stroke-width="6" stroke-linecap="round" stroke-linejoin="round"/>
  </g>
  <g transform="translate(296,50)">
    <rect x="-30" y="-20" width="60" height="40" rx="14" fill="url(#p_bub)"/>
    <path d="M-18,18 L-22,32 L-6,17 Z" fill="#DCE9F7"/>
    <path d="M-11,-9 L11,11 M11,-9 L-11,11" stroke="#E11D48" stroke-width="6" stroke-linecap="round"/>
  </g>
</g>

<ellipse cx="170" cy="352" rx="92" ry="18" fill="url(#p_shadow)"/>

<!-- legs -->
<g>
  <rect x="130" y="304" width="28" height="38" rx="14" fill="url(#p_arm)"/>
  <rect x="182" y="304" width="28" height="38" rx="14" fill="url(#p_arm)"/>
  <ellipse cx="144" cy="343" rx="21" ry="9" fill="#0E7490"/><ellipse cx="144" cy="340" rx="19" ry="7.5" fill="#22B8E0"/>
  <ellipse cx="196" cy="343" rx="21" ry="9" fill="#0E7490"/><ellipse cx="196" cy="340" rx="19" ry="7.5" fill="#22B8E0"/>
</g>

<!-- antenna (listening) -->
<path d="M170,132 L170,104" stroke="#0C87C9" stroke-width="6" stroke-linecap="round"/>
<circle cx="170" cy="98" r="11" fill="#052A1E"/>
<circle cx="170" cy="98" r="9" fill="#34D399"/>
<circle cx="167" cy="95" r="3.4" fill="#ECFDF5" opacity="0.95"/>

<!-- BODY (round, volumetric) -->
<circle cx="170" cy="234" r="88" fill="url(#p_body)"/>
<circle cx="170" cy="234" r="88" fill="url(#p_rim)"/>
<ellipse cx="140" cy="196" rx="38" ry="24" fill="url(#p_spec)"/>

<!-- face visor -->
<rect x="112" y="176" width="116" height="56" rx="28" fill="url(#p_visor)" stroke="#2A6F96" stroke-width="2"/>
<rect x="118" y="181" width="104" height="20" rx="10" fill="url(#p_gloss)"/>
<g>
  <ellipse cx="146" cy="206" rx="16" ry="17" fill="url(#p_eye)"/>
  <ellipse cx="194" cy="206" rx="16" ry="17" fill="url(#p_eye)"/>
  <circle cx="141" cy="200" r="5.5" fill="#F0FEFF" opacity="0.95"/>
  <circle cx="189" cy="200" r="5.5" fill="#F0FEFF" opacity="0.95"/>
</g>
<path d="M156,244 Q170,256 184,244" fill="none" stroke="#04121F" stroke-width="4" stroke-linecap="round"/>
<ellipse cx="110" cy="226" rx="11" ry="7" fill="#7DD3FC" opacity="0.4"/>
<ellipse cx="230" cy="226" rx="11" ry="7" fill="#7DD3FC" opacity="0.4"/>

<!-- ARM holding the TALLY BOARD (self-explanatory: it counts votes) -->
<path d="M242,252 Q276,254 282,238" fill="none" stroke="url(#p_arm)" stroke-width="18" stroke-linecap="round"/>
<g transform="translate(268,220) rotate(8)">
  <rect x="-34" y="-52" width="68" height="92" rx="10" fill="url(#p_board)" stroke="#9DB4C8" stroke-width="2"/>
  <rect x="-14" y="-60" width="28" height="14" rx="6" fill="#7C93A8"/>
  <!-- tally rows: 3 agree, 1 dissent -->
  <g stroke-linecap="round">
    <path d="M-22,-32 L-14,-24 L-2,-40" fill="none" stroke="#12A374" stroke-width="5"/>
    <rect x="6" y="-36" width="22" height="5" rx="2.5" fill="#B9CBDA"/>
    <path d="M-22,-10 L-14,-2 L-2,-18" fill="none" stroke="#12A374" stroke-width="5"/>
    <rect x="6" y="-14" width="22" height="5" rx="2.5" fill="#B9CBDA"/>
    <path d="M-22,12 L-14,20 L-2,4" fill="none" stroke="#12A374" stroke-width="5"/>
    <rect x="6" y="8" width="22" height="5" rx="2.5" fill="#B9CBDA"/>
    <path d="M-22,26 L-8,40 M-8,26 L-22,40" stroke="#E11D48" stroke-width="5"/>
    <rect x="6" y="30" width="14" height="5" rx="2.5" fill="#D6E1EB"/>
  </g>
</g>

<!-- left arm -->
<path d="M98,252 Q66,256 62,238" fill="none" stroke="url(#p_arm)" stroke-width="18" stroke-linecap="round"/>
<circle cx="60" cy="232" r="13" fill="url(#p_body)"/>
<circle cx="60" cy="232" r="13" fill="url(#p_rim)"/>
</g>

<!-- AI badge -->
<g transform="translate(602,168)">
  <rect x="0" y="-26" width="74" height="36" rx="18" fill="url(#neon)" opacity="0.22" filter="url(#bS)"/>
  <rect x="0" y="-26" width="74" height="36" rx="18" fill="none" stroke="url(#neon)" stroke-width="2"/>
  <text x="37" y="0" text-anchor="middle" font-family="DejaVu Sans" font-weight="bold" font-size="22" fill="#7DD3FC" letter-spacing="3">AI</text>
  <rect x="88" y="-11" width="52" height="2.5" rx="1.2" fill="url(#neon)" opacity="0.55"/>
</g>
<g font-family="DejaVu Sans" font-weight="bold">
  <text x="600" y="280" font-size="96" fill="#22D3EE" opacity="0.55" filter="url(#bL)">Quorum</text>
  <text x="600" y="280" font-size="96" fill="#22D3EE" opacity="0.45" filter="url(#bS)">Quorum</text>
  <text x="600" y="280" font-size="96" fill="url(#txtg)">Quorum</text>
</g>
<rect x="602" y="308" width="140" height="5" rx="2.5" fill="url(#neon)" opacity="0.8" filter="url(#bS)"/>
<rect x="602" y="308" width="140" height="5" rx="2.5" fill="url(#neon)"/>
<g font-family="DejaVu Sans">
  <text x="602" y="364" font-size="27" fill="#CFE9FF">One prompt. Every model.</text>
  <text x="602" y="400" font-size="27" fill="#CFE9FF">Real agreement, measured.</text>
  <text x="602" y="454" font-size="18" fill="#7E9CC0">Ask them all &#183; score the consensus &#183; zero deps</text>
</g>
<g transform="translate(602,492)">
  <circle cx="10" cy="-5" r="10" fill="#22D3EE"/><path d="M4,-6 L9,-1 L17,-12" fill="none" stroke="#34D399" stroke-width="2.4" stroke-linecap="round"/>
  <text x="30" y="0" font-family="DejaVu Sans" font-weight="bold" font-size="17" fill="#7DD3FC">Pip</text>
  <text x="66" y="0" font-family="DejaVu Sans" font-size="14" fill="#7E9CC0">&#8212; tallies what the models think</text>
</g>
<g font-family="DejaVu Sans"><rect x="602" y="522" width="3" height="19" rx="1.5" fill="#22D3EE"/><text x="618" y="537" font-size="15" fill="#7E9CC0">by Yacine Mahboub &#183; Founder of WEVIA</text></g>
<rect x="1" y="1" width="1278" height="638" fill="none" stroke="#22D3EE" stroke-opacity="0.18" stroke-width="2"/>
</svg>