<svg xmlns="http://www.w3.org/2000/svg" viewBox="0 0 1280 640" width="1280" height="640">
<defs>
  <radialGradient id="amb" cx="0.30" cy="0.48" r="0.78"><stop offset="0" stop-color="#0a2540"/><stop offset="0.44" stop-color="#061020"/><stop offset="1" stop-color="#030409"/></radialGradient>
  <linearGradient id="neon" x1="0" y1="0" x2="1" y2="1"><stop offset="0" stop-color="#22D3EE"/><stop offset="0.55" stop-color="#38BDF8"/><stop offset="1" stop-color="#7C5CFF"/></linearGradient>
  <linearGradient id="txtg" x1="0" y1="0" x2="0" y2="1"><stop offset="0" stop-color="#FFFFFF"/><stop offset="0.6" stop-color="#EAF6FF"/><stop offset="1" stop-color="#7DD3FC"/></linearGradient>
  <linearGradient id="nodeGloss" x1="0" y1="0" x2="0" y2="1"><stop offset="0" stop-color="#FFFFFF" stop-opacity="0.07"/><stop offset="1" stop-color="#FFFFFF" stop-opacity="0"/></linearGradient>
  <filter id="bL" x="-100%" y="-100%" width="300%" height="300%"><feGaussianBlur stdDeviation="34"/></filter>
  <filter id="bS" x="-60%" y="-60%" width="220%" height="220%"><feGaussianBlur stdDeviation="4.5"/></filter>
  <pattern id="mesh" width="48" height="48" patternUnits="userSpaceOnUse"><path d="M48 0H0V48" fill="none" stroke="#38BDF8" stroke-opacity="0.055" stroke-width="1"/></pattern>
</defs>
<rect width="1280" height="640" fill="url(#amb)"/><rect width="1280" height="640" fill="url(#mesh)"/>
<ellipse cx="340" cy="320" rx="350" ry="290" fill="#22D3EE" opacity="0.10" filter="url(#bL)"/>
<g transform="translate(1132,30) scale(0.6)"><rect x="-6" y="-6" width="132" height="132" rx="26" fill="#0a0a20" opacity="0.55"/>
  <defs>
    <linearGradient id="wgl" x1="0" y1="0" x2="0" y2="1">
      <stop offset="0%" stop-color="#a78bfa"/>
      <stop offset="100%" stop-color="#7c3aed"/>
    </linearGradient>
    <linearGradient id="wgr" x1="0" y1="0" x2="0" y2="1">
      <stop offset="0%" stop-color="#67e8f9"/>
      <stop offset="100%" stop-color="#06b6d4"/>
    </linearGradient>
    <filter id="wglow">
      <feGaussianBlur stdDeviation="1.5" result="b"/>
      <feMerge><feMergeNode in="b"/><feMergeNode in="SourceGraphic"/></feMerge>
    </filter>
  </defs>

  <rect width="120" height="120" rx="22" fill="#ffffff" stroke="#e5e7eb" stroke-width="2"/>

  <!-- LOBE GAUCHE -->
  <path d="
    M60,28
    C56,24 48,22 41,25
    C34,28 30,35 30,42
    C27,44 25,49 27,54
    C24,57 23,63 26,68
    C29,73 35,75 40,73
    C42,78 46,82 52,82
    C57,82 60,79 60,79
  " fill="none" stroke="url(#wgl)" stroke-width="3" stroke-linecap="round" stroke-linejoin="round" filter="url(#wglow)"/>

  <!-- Sillons gauche -->
  <path d="M44,28 C41,36 40,44 42,52" fill="none" stroke="#a78bfa" stroke-width="1.8" stroke-dasharray="3,3" stroke-linecap="round" opacity="0.8"/>
  <path d="M35,40 C32,47 32,56 36,63" fill="none" stroke="#7c3aed" stroke-width="1.4" stroke-dasharray="2,4" stroke-linecap="round" opacity="0.6"/>

  <!-- LOBE DROIT -->
  <path d="
    M60,28
    C64,24 72,22 79,25
    C86,28 90,35 90,42
    C93,44 95,49 93,54
    C96,57 97,63 94,68
    C91,73 85,75 80,73
    C78,78 74,82 68,82
    C63,82 60,79 60,79
  " fill="none" stroke="url(#wgr)" stroke-width="3" stroke-linecap="round" stroke-linejoin="round" filter="url(#wglow)"/>

  <!-- Sillons droite -->
  <path d="M76,28 C79,36 80,44 78,52" fill="none" stroke="#67e8f9" stroke-width="1.8" stroke-dasharray="3,3" stroke-linecap="round" opacity="0.8"/>
  <path d="M85,40 C88,47 88,56 84,63" fill="none" stroke="#06b6d4" stroke-width="1.4" stroke-dasharray="2,4" stroke-linecap="round" opacity="0.6"/>

  <!-- SILLON MÉDIAN -->
  <line x1="60" y1="27" x2="60" y2="80" stroke="#7c3aed" stroke-width="1.5" stroke-dasharray="5,4" opacity="0.55"/>

  <!-- NOEUDS SYNAPTIQUES gauche -->
  <circle cx="40" cy="30" r="3.2" fill="#a78bfa" filter="url(#wglow)"/>
  <circle cx="28" cy="52" r="2.8" fill="#7c3aed" filter="url(#wglow)"/>
  <circle cx="38" cy="72" r="2.8" fill="#10b981" filter="url(#wglow)"/>

  <!-- NOEUDS SYNAPTIQUES droite -->
  <circle cx="80" cy="30" r="3.2" fill="#67e8f9" filter="url(#wglow)"/>
  <circle cx="92" cy="52" r="2.8" fill="#06b6d4" filter="url(#wglow)"/>
  <circle cx="82" cy="72" r="2.8" fill="#10b981" filter="url(#wglow)"/>

  <!-- AXONES vers centre -->
  <line x1="42" y1="32" x2="57" y2="50" stroke="#a78bfa" stroke-width="1.2" opacity="0.6"/>
  <line x1="30" y1="52" x2="54" y2="53" stroke="#7c3aed" stroke-width="1.2" opacity="0.6"/>
  <line x1="40" y1="70" x2="56" y2="57" stroke="#10b981" stroke-width="1.2" opacity="0.6"/>
  <line x1="78" y1="32" x2="63" y2="50" stroke="#67e8f9" stroke-width="1.2" opacity="0.6"/>
  <line x1="90" y1="52" x2="66" y2="53" stroke="#06b6d4" stroke-width="1.2" opacity="0.6"/>
  <line x1="80" y1="70" x2="64" y2="57" stroke="#10b981" stroke-width="1.2" opacity="0.6"/>

  <!-- NOEUD CENTRAL pulsant -->
  <circle cx="60" cy="53" r="6.5" fill="url(#wgl)" filter="url(#wglow)"/>
  <circle cx="60" cy="53" r="11" fill="none" stroke="url(#wgl)" stroke-width="1.5" opacity="0.4"/>
  <circle cx="60" cy="53" r="16" fill="none" stroke="url(#wgr)" stroke-width="0.8" opacity="0.45"/>

  <!-- TEXTE WEVIA -->
  <text x="60" y="97" font-family="Arial Black,Arial" font-weight="900" font-size="12"
        fill="#7c3aed" text-anchor="middle" letter-spacing="3">WEVIA</text>
  <text x="60" y="109" font-family="Arial,sans-serif" font-size="6.5"
        fill="#06b6d4" text-anchor="middle" letter-spacing="2" opacity="0.8">INTELLIGENCE</text>
</g>
<text x="1168" y="124" text-anchor="middle" font-family="DejaVu Sans" font-weight="bold" font-size="18" fill="#7DD3FC" letter-spacing="3">WEVIA</text>

<g font-family="DejaVu Sans">
  <text x="20" y="146" font-size="11.5" fill="#5B87A6" letter-spacing="3">FAN-OUT &#183; SCORE &#183; VERDICT</text>
  <rect x="20" y="156" width="660" height="1" fill="#1D4A66" opacity="0.7"/>
  <g transform="translate(20,288)">
    <rect x="0" y="-56" width="138" height="112" rx="18" fill="#06202f" stroke="#38BDF8" stroke-width="1.8"/>
    <rect x="0" y="-56" width="138" height="112" rx="18" fill="url(#nodeGloss)"/>
    <g transform="translate(69,-16)" stroke="#7DD3FC" stroke-width="2.4" stroke-linecap="round"><path d="M-22,-9 L22,-9"/><path d="M-22,0 L14,0"/><path d="M-22,9 L4,9"/></g>
    <text x="69" y="26" text-anchor="middle" font-size="15" font-weight="bold" fill="#E0F2FE">PROMPT</text>
    <text x="69" y="43" text-anchor="middle" font-size="10.5" fill="#5E86A3">asked once</text>
  </g>
  <path d="M158,288 C186,288 182,176 202,176" stroke="#38BDF8" stroke-width="1.8" opacity="0.55" fill="none"/><path d="M388,176 C420,176 442,290.72 472,290.72" stroke="#38BDF8" stroke-width="1.7" opacity="0.42" fill="none"/><path d="M158,288 C186,288 182,232 202,232" stroke="#38BDF8" stroke-width="1.8" opacity="0.55" fill="none"/><path d="M388,232 C420,232 442,303.04 472,303.04" stroke="#38BDF8" stroke-width="1.7" opacity="0.42" fill="none"/><path d="M158,288 C186,288 182,288 202,288" stroke="#38BDF8" stroke-width="1.8" opacity="0.55" fill="none"/><path d="M388,288 C420,288 442,315.36 472,315.36" stroke="#38BDF8" stroke-width="1.7" opacity="0.42" fill="none"/><path d="M158,288 C186,288 182,344 202,344" stroke="#F59E0B" stroke-width="1.8" opacity="0.48" fill="none"/><path d="M388,344 C420,344 442,327.68 472,327.68" stroke="#F59E0B" stroke-width="1.7" opacity="0.42" fill="none"/><path d="M158,288 C186,288 182,400 202,400" stroke="#F59E0B" stroke-width="1.8" opacity="0.32" fill="none" stroke-dasharray='5 5'/>
  <g transform="translate(206,176)">
    <rect x="0" y="-18" width="182" height="38" rx="12" fill="#0a2438" stroke="#22D3EE" stroke-width="1.4"/>
    <circle cx="22" cy="1" r="6.5" fill="#22D3EE"/>
    <text x="40" y="5.5" font-size="12.5" fill="#D3ECFF" font-family="DejaVu Sans">model A</text>
    <text x="170" y="5.5" text-anchor="end" font-size="10.5" fill="#22D3EE" font-family="DejaVu Sans">agrees</text>
  </g>
  <g transform="translate(206,232)">
    <rect x="0" y="-18" width="182" height="38" rx="12" fill="#0a2438" stroke="#22D3EE" stroke-width="1.4"/>
    <circle cx="22" cy="1" r="6.5" fill="#22D3EE"/>
    <text x="40" y="5.5" font-size="12.5" fill="#D3ECFF" font-family="DejaVu Sans">model B</text>
    <text x="170" y="5.5" text-anchor="end" font-size="10.5" fill="#22D3EE" font-family="DejaVu Sans">agrees</text>
  </g>
  <g transform="translate(206,288)">
    <rect x="0" y="-18" width="182" height="38" rx="12" fill="#0a2438" stroke="#22D3EE" stroke-width="1.4"/>
    <circle cx="22" cy="1" r="6.5" fill="#22D3EE"/>
    <text x="40" y="5.5" font-size="12.5" fill="#D3ECFF" font-family="DejaVu Sans">model C</text>
    <text x="170" y="5.5" text-anchor="end" font-size="10.5" fill="#22D3EE" font-family="DejaVu Sans">agrees</text>
  </g>
  <g transform="translate(206,344)">
    <rect x="0" y="-18" width="182" height="38" rx="12" fill="#251a06" stroke="#F59E0B" stroke-width="1.4"/>
    <circle cx="22" cy="1" r="6.5" fill="#F59E0B"/>
    <text x="40" y="5.5" font-size="12.5" fill="#FDE68A" font-family="DejaVu Sans">model D</text>
    <text x="170" y="5.5" text-anchor="end" font-size="10.5" fill="#F59E0B" font-family="DejaVu Sans">differs</text>
  </g>
  <g transform="translate(206,400)">
    <rect x="0" y="-18" width="182" height="38" rx="12" fill="#2b1022" stroke="#B4436A" stroke-width="1.4" stroke-dasharray="5 4"/>
    <circle cx="22" cy="1" r="6.5" fill="#B4436A"/>
    <text x="40" y="5.5" font-size="12.5" fill="#FBB6CE" font-family="DejaVu Sans">model E</text>
    <text x="170" y="5.5" text-anchor="end" font-size="10.5" fill="#B4436A" font-family="DejaVu Sans">429 rate-limited</text>
  </g>
  <g transform="translate(590,318)"><circle r="116" fill="#04192a" opacity="0.55"/></g>
  <path d="M491.5,335.4 A100,100 0 0 1 525.7,241.4" fill="none" stroke="#F43F5E" stroke-width="17" stroke-linecap="round" opacity="0.85"/><path d="M528.4,239.2 A100,100 0 0 1 624.2,224.0" fill="none" stroke="#F59E0B" stroke-width="17" stroke-linecap="round" opacity="0.85"/><path d="M627.5,225.3 A100,100 0 0 1 688.5,335.4" fill="none" stroke="#34D399" stroke-width="17" stroke-linecap="round" opacity="0.9"/><path d="M504.3,333.1 L513.2,331.5" stroke="#4E7794" stroke-width="1.6"/><text x="528.9" y="332.8" text-anchor="middle" font-size="10" fill="#5B87A6" font-family="DejaVu Sans">0</text><path d="M534.1,251.4 L539.9,258.2" stroke="#4E7794" stroke-width="1.6"/><text x="550.1" y="274.5" text-anchor="middle" font-size="10" fill="#5B87A6" font-family="DejaVu Sans">0.3</text><path d="M619.8,236.2 L616.7,244.7" stroke="#4E7794" stroke-width="1.6"/><text x="611.2" y="263.7" text-anchor="middle" font-size="10" fill="#5B87A6" font-family="DejaVu Sans">0.6</text><path d="M675.7,333.1 L666.8,331.5" stroke="#4E7794" stroke-width="1.6"/><text x="651.1" y="332.8" text-anchor="middle" font-size="10" fill="#5B87A6" font-family="DejaVu Sans">1.0</text><text x="467.8" y="277.5" text-anchor="middle" font-size="10" font-weight="bold" fill="#C4697F" font-family="DejaVu Sans" letter-spacing="0.8">DIVERGENT</text><text x="567.4" y="194.0" text-anchor="middle" font-size="10" font-weight="bold" fill="#C09040" font-family="DejaVu Sans" letter-spacing="0.8">PARTIAL</text><text x="702.6" y="257.0" text-anchor="middle" font-size="10" font-weight="bold" fill="#4FB78C" font-family="DejaVu Sans" letter-spacing="0.8">STRONG</text><circle cx="686.1" cy="290.4" r="7" fill="#ECFDF5" stroke="#0b2b20" stroke-width="2"/><path d="M599.4,314.6 L661.1,297.6 L599.8,315.9 Z" fill="#F0FBFF"/><circle cx="590" cy="318" r="9" fill="#0a2438" stroke="#7DD3FC" stroke-width="2.4"/>
  <text x="590" y="288" text-anchor="middle" font-size="40" font-weight="bold" fill="#F0FBFF">0.87</text>
  <text x="590" y="358" text-anchor="middle" font-size="12" font-weight="bold" fill="#6EE7B7" letter-spacing="1.4">STRONG AGREEMENT</text>
  <text x="590" y="376" text-anchor="middle" font-size="11" fill="#5B87A6">4 of 5 models counted</text>
  <text x="590" y="394" text-anchor="middle" font-size="10" fill="#4E7794">1 excluded &#8212; rate-limited</text>
</g>
<g transform="translate(720,168)">
  <rect x="0" y="-26" width="74" height="36" rx="18" fill="url(#neon)" opacity="0.22" filter="url(#bS)"/>
  <rect x="0" y="-26" width="74" height="36" rx="18" fill="none" stroke="url(#neon)" stroke-width="2"/>
  <text x="37" y="0" text-anchor="middle" font-family="DejaVu Sans" font-weight="bold" font-size="22" fill="#7DD3FC" letter-spacing="3">AI</text>
  <rect x="88" y="-11" width="46" height="2.5" rx="1.2" fill="url(#neon)" opacity="0.55"/>
</g>
<g font-family="DejaVu Sans" font-weight="bold">
  <text x="718" y="290" font-size="86" fill="#22D3EE" opacity="0.5" filter="url(#bL)">Quorum</text>
  <text x="718" y="290" font-size="86" fill="url(#txtg)">Quorum</text>
</g>
<rect x="720" y="318" width="128" height="5" rx="2.5" fill="url(#neon)"/>
<g font-family="DejaVu Sans">
  <text x="720" y="372" font-size="24" fill="#CFE9FF">How much do your models</text>
  <text x="720" y="404" font-size="24" fill="#CFE9FF">actually agree? Measure it.</text>
  <text x="720" y="450" font-size="16.5" fill="#7E9CC0">Ask them all &#183; score the consensus &#183; zero deps</text>
</g>
<g font-family="DejaVu Sans"><rect x="720" y="484" width="3" height="18" rx="1.5" fill="#22D3EE"/><text x="736" y="498" font-size="14.5" fill="#7E9CC0">by Yacine Mahboub &#183; Founder of WEVIA</text></g>
<rect x="1" y="1" width="1278" height="638" fill="none" stroke="#22D3EE" stroke-opacity="0.18" stroke-width="2"/>
</svg>